<svg width="220.35692138671874px" height="100.5199981689453px" xmlns="http://www.w3.org/2000/svg" viewBox="138.82153930664063 11.240000915527347 222.35692138671874 127.5199981689453" style="background: rgba(0, 0, 0, 0);" preserveAspectRatio="xMidYMid"><defs><linearGradient id="editing-gradient-gradient" x1="0.5348782368720628" x2="0.4651217631279372" y1="0.9987820251299121" y2="0.0012179748700879012" gradientUnits="objectBoundingBox"><stop offset="0" stop-color="#da7c25"></stop><stop offset="1" stop-color="#b923e1"></stop></linearGradient></defs><g><g transform="translate(175.8797033727169, 100.5)"><path d="M26.52-5.10L26.52-5.10L26.52-5.10Q26.52-9.86 28.42-19.38L28.42-19.38L18.36-19.38L14.62 0L0.41 0L9.04-44.88L23.39-44.88L19.45-24.82L29.51-24.82L33.25-44.88L47.60-44.88L47.60-44.88Q46.65-39.85 45.42-34.20L45.42-34.20L43.11-23.12L43.11-23.12Q40.53-10.20 40.53-4.56L40.53-4.56L40.53-4.56Q40.53-2.24 41.28-0.95L41.28-0.95L41.28-0.95Q37.88 1.36 33.90 1.36L33.90 1.36L33.90 1.36Q29.92 1.36 28.22-0.54L28.22-0.54L28.22-0.54Q26.52-2.45 26.52-5.10ZM52.19-2.04L52.19-2.04L52.19-2.04Q50.59-3.81 49.88-6.60L49.88-6.60L49.88-6.60Q49.16-9.38 49.16-13.94L49.16-13.94L49.16-13.94Q49.16-18.50 50.73-22.64L50.73-22.64L50.73-22.64Q52.29-26.79 55.15-29.78L55.15-29.78L55.15-29.78Q61.00-36.04 70.65-36.04L70.65-36.04L70.65-36.04Q74.12-36.04 76.64-34.88L76.64-34.88L88.26-36.04L83.23-9.52L83.23-9.52Q83.03-8.70 83.03-7.21L83.03-7.21L83.03-7.21Q83.03-5.71 83.95-4.76L83.95-4.76L83.95-4.76Q84.86-3.81 86.22-3.67L86.22-3.67L86.22-3.67Q85.54-1.36 83.06 0L83.06 0L83.06 0Q80.58 1.36 77.79 1.36L77.79 1.36L77.79 1.36Q75.00 1.36 73.13 0.31L73.13 0.31L73.13 0.31Q71.26-0.75 70.72-2.52L70.72-2.52L70.72-2.52Q69.63-0.82 67.32 0.27L67.32 0.27L67.32 0.27Q65.01 1.36 61.91 1.36L61.91 1.36L61.91 1.36Q58.82 1.36 56.30 0.54L56.30 0.54L56.30 0.54Q53.79-0.27 52.19-2.04ZM66.54-29.65L66.54-29.65L66.54-29.65Q65.76-28.42 65.08-26.35L65.08-26.35L65.08-26.35Q64.40-24.28 63.27-18.73L63.27-18.73L63.27-18.73Q62.15-13.19 62.15-9.25L62.15-9.25L62.15-9.25Q62.15-5.30 62.76-4.15L62.76-4.15L62.76-4.15Q63.38-2.99 64.46-2.99L64.46-2.99L64.46-2.99Q66.64-2.99 68.24-5.07L68.24-5.07L68.24-5.07Q69.84-7.14 70.45-10.81L70.45-10.81L74.05-30.74L74.05-30.74Q72.62-31.96 70.96-31.96L70.96-31.96L70.96-31.96Q69.29-31.96 68.31-31.42L68.31-31.42L68.31-31.42Q67.32-30.87 66.54-29.65ZM113.22-19.11L113.22-19.11L113.22-19.11Q115.67-23.46 115.67-27.88L115.67-27.88L115.67-27.88Q115.67-30.80 113.56-30.80L113.56-30.80L113.56-30.80Q111.93-30.80 110.23-28.02L110.23-28.02L110.23-28.02Q108.46-25.23 107.92-21.62L107.92-21.62L104.38 0L90.30 1.36L97.24-34.68L108.46-36.04L107.24-29.17L107.24-29.17Q110.57-36.04 118.05-36.04L118.05-36.04L118.05-36.04Q121.99-36.04 124.13-34L124.13-34L124.13-34Q126.28-31.96 126.28-27.78L126.28-27.78L126.28-27.78Q126.28-23.60 123.52-20.94L123.52-20.94L123.52-20.94Q120.77-18.29 116.08-18.29L116.08-18.29L116.08-18.29Q114.04-18.29 113.22-19.11ZM143.68-3.74L143.68-3.74L143.68-3.74Q141.58 1.36 134.84 1.36L134.84 1.36L134.84 1.36Q131.38 1.36 129.20-1.02L129.20-1.02L129.20-1.02Q127.36-3.13 127.36-5.24L127.36-5.24L127.36-5.24Q127.36-10.74 129.88-21.49L129.88-21.49L132.40-34.68L146.20-36.04L142.05-14.55L142.05-14.55Q140.90-9.52 140.90-7.75L140.90-7.75L140.90-7.75Q140.90-3.88 143.68-3.74ZM133.62-44.13L133.62-44.13L133.62-44.13Q133.62-46.78 135.83-48.21L135.83-48.21L135.83-48.21Q138.04-49.64 141.24-49.64L141.24-49.64L141.24-49.64Q144.43-49.64 146.37-48.21L146.37-48.21L146.37-48.21Q148.31-46.78 148.31-44.13L148.31-44.13L148.31-44.13Q148.31-41.48 146.17-40.12L146.17-40.12L146.17-40.12Q144.02-38.76 140.83-38.76L140.83-38.76L140.83-38.76Q137.63-38.76 135.63-40.12L135.63-40.12L135.63-40.12Q133.62-41.48 133.62-44.13Z" fill="url(#editing-gradient-gradient)"></path></g></g><style>text {
  font-size: 64px;
  font-family: Arial Black;
  dominant-baseline: central;
  text-anchor: middle;
}</style></svg>